<svg width="32" height="22" viewBox="0 0 32 22" fill="none" xmlns="http://www.w3.org/2000/svg">
<g id="Group">
<g id="Group_2">
<path id="Vector" d="M26.7143 3.14286C26.7143 1.41429 25.3 0 23.5714 0H18.8571V3.14286H23.5714V7.30714L18.1029 14.1429H12.5714V6.28571H6.28571C2.81286 6.28571 0 9.09857 0 12.5714V17.2857H3.14286C3.14286 19.8943 5.24857 22 7.85714 22C10.4657 22 12.5714 19.8943 12.5714 17.2857H19.6114L26.7143 8.40714V3.14286ZM7.85714 18.8571C6.99286 18.8571 6.28571 18.15 6.28571 17.2857H9.42857C9.42857 18.15 8.72143 18.8571 7.85714 18.8571Z" fill="white"/>
<path id="Vector_2" d="M12.5714 1.57143H4.71429V4.71429H12.5714V1.57143Z" fill="white"/>
<path id="Vector_3" d="M26.7143 12.5714C24.1057 12.5714 22 14.6771 22 17.2857C22 19.8943 24.1057 22 26.7143 22C29.3229 22 31.4286 19.8943 31.4286 17.2857C31.4286 14.6771 29.3229 12.5714 26.7143 12.5714ZM26.7143 18.8571C25.85 18.8571 25.1429 18.15 25.1429 17.2857C25.1429 16.4214 25.85 15.7143 26.7143 15.7143C27.5786 15.7143 28.2857 16.4214 28.2857 17.2857C28.2857 18.15 27.5786 18.8571 26.7143 18.8571Z" fill="white"/>
</g>
</g>
</svg>
